<svg xmlns="http://www.w3.org/2000/svg" viewBox="0 0 1024 1024" width="1024" height="1024" role="img" aria-label="Cockpit Pro horizon command icon">
  <defs>
    <clipPath id="clip"><rect width="1024" height="1024" rx="224"/></clipPath>
    <radialGradient id="sky" cx="48%" cy="30%" r="74%">
      <stop offset="0" stop-color="#4FD3FF"/>
      <stop offset=".58" stop-color="#176BD6"/>
      <stop offset="1" stop-color="#071A3D"/>
    </radialGradient>
    <radialGradient id="ground" cx="52%" cy="78%" r="62%">
      <stop offset="0" stop-color="#D6A15B"/>
      <stop offset=".58" stop-color="#6B3C1B"/>
      <stop offset="1" stop-color="#160A04"/>
    </radialGradient>
    <filter id="glow" x="-30%" y="-30%" width="160%" height="160%">
      <feGaussianBlur stdDeviation="8" result="blur"/>
      <feMerge><feMergeNode in="blur"/><feMergeNode in="SourceGraphic"/></feMerge>
    </filter>
  </defs>
  <g clip-path="url(#clip)">
    <rect width="1024" height="512" fill="url(#sky)"/>
    <rect y="512" width="1024" height="512" fill="url(#ground)"/>
    <circle cx="512" cy="512" r="430" fill="none" stroke="#07111F" stroke-width="34"/>
    <circle cx="512" cy="512" r="407" fill="none" stroke="#D6F7FF" stroke-width="2" opacity=".34"/>
    <g stroke="#B8EBFF" stroke-width="5" opacity=".7" stroke-linecap="round">
      <line x1="512" y1="82" x2="512" y2="132"/>
      <line x1="512" y1="82" x2="512" y2="118" transform="rotate(30 512 512)"/>
      <line x1="512" y1="82" x2="512" y2="118" transform="rotate(60 512 512)"/>
      <line x1="512" y1="82" x2="512" y2="132" transform="rotate(90 512 512)"/>
      <line x1="512" y1="82" x2="512" y2="118" transform="rotate(120 512 512)"/>
      <line x1="512" y1="82" x2="512" y2="118" transform="rotate(150 512 512)"/>
      <line x1="512" y1="82" x2="512" y2="132" transform="rotate(180 512 512)"/>
      <line x1="512" y1="82" x2="512" y2="118" transform="rotate(210 512 512)"/>
      <line x1="512" y1="82" x2="512" y2="118" transform="rotate(240 512 512)"/>
      <line x1="512" y1="82" x2="512" y2="132" transform="rotate(270 512 512)"/>
      <line x1="512" y1="82" x2="512" y2="118" transform="rotate(300 512 512)"/>
      <line x1="512" y1="82" x2="512" y2="118" transform="rotate(330 512 512)"/>
    </g>
    <rect x="84" y="500" width="856" height="24" rx="12" fill="#FFFFFF" opacity=".97" filter="url(#glow)"/>
    <path d="M512 132 476 192h72z" fill="#FFFFFF" opacity=".94"/>
    <path d="M186 522h235c14 0 27 7 35 18l24 34c16 23 48 23 64 0l24-34c8-11 21-18 35-18h235" fill="none" stroke="#FFC857" stroke-width="34" stroke-linecap="round" stroke-linejoin="round" filter="url(#glow)"/>
    <circle cx="512" cy="512" r="31" fill="#FFFFFF" filter="url(#glow)"/>
    <circle cx="512" cy="512" r="14" fill="#061B31"/>
    <g stroke="#FFFFFF" stroke-width="5" opacity=".54" stroke-linecap="round">
      <line x1="362" y1="422" x2="662" y2="422"/>
      <line x1="404" y1="352" x2="620" y2="352"/>
      <line x1="430" y1="286" x2="594" y2="286"/>
    </g>
    <g stroke="#FFD19A" stroke-width="5" opacity=".58" stroke-linecap="round">
      <line x1="362" y1="604" x2="662" y2="604"/>
      <line x1="404" y1="674" x2="620" y2="674"/>
      <line x1="430" y1="740" x2="594" y2="740"/>
    </g>
  </g>
</svg>
