<svg xmlns="http://www.w3.org/2000/svg" viewBox="0 0 1024 1024" width="1024" height="1024" role="img" aria-label="Cockpit Pro glass CP monogram icon">
  <defs>
    <clipPath id="clip"><rect width="1024" height="1024" rx="224"/></clipPath>
    <linearGradient id="bg" x1="128" y1="64" x2="900" y2="960" gradientUnits="userSpaceOnUse">
      <stop offset="0" stop-color="#101827"/>
      <stop offset=".45" stop-color="#0E3E59"/>
      <stop offset="1" stop-color="#061016"/>
    </linearGradient>
    <linearGradient id="panel" x1="210" y1="172" x2="816" y2="850" gradientUnits="userSpaceOnUse">
      <stop offset="0" stop-color="#E9FFFF" stop-opacity=".34"/>
      <stop offset=".42" stop-color="#44D6D2" stop-opacity=".16"/>
      <stop offset="1" stop-color="#06131D" stop-opacity=".2"/>
    </linearGradient>
    <filter id="shadow" x="-20%" y="-20%" width="140%" height="140%">
      <feDropShadow dx="0" dy="28" stdDeviation="36" flood-color="#000000" flood-opacity=".45"/>
    </filter>
    <filter id="glow" x="-30%" y="-30%" width="160%" height="160%">
      <feGaussianBlur stdDeviation="10" result="blur"/>
      <feMerge><feMergeNode in="blur"/><feMergeNode in="SourceGraphic"/></feMerge>
    </filter>
  </defs>
  <g clip-path="url(#clip)">
    <rect width="1024" height="1024" fill="url(#bg)"/>
    <circle cx="254" cy="226" r="240" fill="#35C7FF" opacity=".16"/>
    <circle cx="784" cy="790" r="300" fill="#F8B94A" opacity=".12"/>
    <rect x="164" y="164" width="696" height="696" rx="174" fill="url(#panel)" stroke="#BFFBFF" stroke-width="3" opacity=".95" filter="url(#shadow)"/>
    <path d="M724 340c-48-58-120-90-204-90-151 0-270 114-270 262s119 262 270 262c83 0 156-32 204-90" fill="none" stroke="#EFFFFF" stroke-width="70" stroke-linecap="round"/>
    <path d="M530 326h120c87 0 150 54 150 132s-63 132-150 132H530" fill="none" stroke="#5CF0DF" stroke-width="70" stroke-linecap="round" stroke-linejoin="round" filter="url(#glow)"/>
    <path d="M530 590v184" fill="none" stroke="#5CF0DF" stroke-width="70" stroke-linecap="round"/>
    <path d="M264 500h202" stroke="#FFC95D" stroke-width="18" stroke-linecap="round" filter="url(#glow)"/>
    <path d="M708 458h118" stroke="#FFC95D" stroke-width="18" stroke-linecap="round"/>
    <path d="M230 228c118-46 285-42 418 11" fill="none" stroke="#FFFFFF" stroke-width="8" opacity=".25" stroke-linecap="round"/>
  </g>
</svg>
