<svg xmlns="http://www.w3.org/2000/svg" viewBox="0 0 1024 1024" width="1024" height="1024" role="img" aria-label="Cockpit Pro navigation orbit icon">
  <defs>
    <clipPath id="clip"><rect width="1024" height="1024" rx="224"/></clipPath>
    <radialGradient id="bg" cx="50%" cy="38%" r="72%">
      <stop offset="0" stop-color="#143F75"/>
      <stop offset=".58" stop-color="#0B1F3C"/>
      <stop offset="1" stop-color="#050A16"/>
    </radialGradient>
    <linearGradient id="needle" x1="340" y1="254" x2="694" y2="760" gradientUnits="userSpaceOnUse">
      <stop offset="0" stop-color="#FFFFFF"/>
      <stop offset=".5" stop-color="#6FE7FF"/>
      <stop offset="1" stop-color="#FFBF4D"/>
    </linearGradient>
    <filter id="glow" x="-35%" y="-35%" width="170%" height="170%">
      <feGaussianBlur stdDeviation="9" result="blur"/>
      <feMerge><feMergeNode in="blur"/><feMergeNode in="SourceGraphic"/></feMerge>
    </filter>
  </defs>
  <g clip-path="url(#clip)">
    <rect width="1024" height="1024" fill="url(#bg)"/>
    <g fill="none" stroke="#D5F7FF" opacity=".24">
      <circle cx="512" cy="512" r="342" stroke-width="4"/>
      <circle cx="512" cy="512" r="242" stroke-width="3"/>
      <circle cx="512" cy="512" r="142" stroke-width="2"/>
    </g>
    <path d="M184 512h656M512 184v656" stroke="#D5F7FF" stroke-width="3" opacity=".22"/>
    <path d="M512 138c118 0 228 55 298 148" fill="none" stroke="#5DF0E5" stroke-width="18" stroke-linecap="round" filter="url(#glow)"/>
    <path d="M214 742c-67-86-90-198-64-303" fill="none" stroke="#FFBD55" stroke-width="18" stroke-linecap="round" filter="url(#glow)"/>
    <path d="M512 220 606 512 512 804 418 512z" fill="url(#needle)" filter="url(#glow)"/>
    <path d="M512 220 606 512H418z" fill="#EFFFFF" opacity=".92"/>
    <path d="M606 512 512 804 418 512z" fill="#F1A942" opacity=".94"/>
    <circle cx="512" cy="512" r="62" fill="#071529" stroke="#FFFFFF" stroke-width="12"/>
    <circle cx="512" cy="512" r="24" fill="#5DF0E5"/>
    <g fill="#FFFFFF" opacity=".78">
      <circle cx="760" cy="316" r="12"/>
      <circle cx="292" cy="684" r="10"/>
      <circle cx="684" cy="744" r="8"/>
    </g>
    <path d="M346 350c92-70 242-72 334 0" fill="none" stroke="#FFFFFF" stroke-width="7" opacity=".28" stroke-linecap="round"/>
  </g>
</svg>
