<svg xmlns="http://www.w3.org/2000/svg" viewBox="0 0 1024 1024" width="1024" height="1024">
  <defs>
    <clipPath id="clip"><rect width="1024" height="1024" rx="224" ry="224"/></clipPath>
    <radialGradient id="bg" cx="40%" cy="35%" r="70%">
      <stop offset="0%" stop-color="#111111"/>
      <stop offset="100%" stop-color="#050505"/>
    </radialGradient>
    <linearGradient id="letter-grad" x1="0%" y1="0%" x2="40%" y2="100%">
      <stop offset="0%" stop-color="#FFFFFF"/>
      <stop offset="50%" stop-color="#C8C8C8"/>
      <stop offset="100%" stop-color="#888888"/>
    </linearGradient>
    <linearGradient id="ring-grad" x1="0%" y1="0%" x2="0%" y2="100%">
      <stop offset="0%" stop-color="#E0E0E0"/>
      <stop offset="100%" stop-color="#707070"/>
    </linearGradient>
    <filter id="lg"><feGaussianBlur stdDeviation="9" result="b"/><feMerge><feMergeNode in="b"/><feMergeNode in="SourceGraphic"/></feMerge></filter>
    <filter id="rg"><feGaussianBlur stdDeviation="4" result="b"/><feMerge><feMergeNode in="b"/><feMergeNode in="SourceGraphic"/></feMerge></filter>
  </defs>
  <g clip-path="url(#clip)">
    <rect width="1024" height="1024" fill="url(#bg)"/>
    <circle cx="512" cy="512" r="432" fill="none" stroke="#080808" stroke-width="30"/>
    <circle cx="512" cy="512" r="432" fill="none" stroke="url(#ring-grad)" stroke-width="3" filter="url(#rg)"/>
    <circle cx="512" cy="512" r="417" fill="none" stroke="#1A1A1A" stroke-width="1.5" opacity="0.6"/>
    <g stroke="#484848" stroke-width="3" stroke-linecap="round" opacity="0.7">
      <line x1="512" y1="80" x2="512" y2="118" transform="rotate(0,512,512)"/>
      <line x1="512" y1="80" x2="512" y2="118" transform="rotate(30,512,512)"/>
      <line x1="512" y1="80" x2="512" y2="118" transform="rotate(60,512,512)"/>
      <line x1="512" y1="80" x2="512" y2="118" transform="rotate(90,512,512)"/>
      <line x1="512" y1="80" x2="512" y2="118" transform="rotate(120,512,512)"/>
      <line x1="512" y1="80" x2="512" y2="118" transform="rotate(150,512,512)"/>
      <line x1="512" y1="80" x2="512" y2="118" transform="rotate(180,512,512)"/>
      <line x1="512" y1="80" x2="512" y2="118" transform="rotate(210,512,512)"/>
      <line x1="512" y1="80" x2="512" y2="118" transform="rotate(240,512,512)"/>
      <line x1="512" y1="80" x2="512" y2="118" transform="rotate(270,512,512)"/>
      <line x1="512" y1="80" x2="512" y2="118" transform="rotate(300,512,512)"/>
      <line x1="512" y1="80" x2="512" y2="118" transform="rotate(330,512,512)"/>
    </g>
    <g stroke="#282828" stroke-width="1.5" stroke-linecap="round" opacity="0.5">
      <line x1="512" y1="80" x2="512" y2="100" transform="rotate(15,512,512)"/>
      <line x1="512" y1="80" x2="512" y2="100" transform="rotate(45,512,512)"/>
      <line x1="512" y1="80" x2="512" y2="100" transform="rotate(75,512,512)"/>
      <line x1="512" y1="80" x2="512" y2="100" transform="rotate(105,512,512)"/>
      <line x1="512" y1="80" x2="512" y2="100" transform="rotate(135,512,512)"/>
      <line x1="512" y1="80" x2="512" y2="100" transform="rotate(165,512,512)"/>
      <line x1="512" y1="80" x2="512" y2="100" transform="rotate(195,512,512)"/>
      <line x1="512" y1="80" x2="512" y2="100" transform="rotate(225,512,512)"/>
      <line x1="512" y1="80" x2="512" y2="100" transform="rotate(255,512,512)"/>
      <line x1="512" y1="80" x2="512" y2="100" transform="rotate(285,512,512)"/>
      <line x1="512" y1="80" x2="512" y2="100" transform="rotate(315,512,512)"/>
      <line x1="512" y1="80" x2="512" y2="100" transform="rotate(345,512,512)"/>
    </g>
    <circle cx="512" cy="512" r="348" fill="none" stroke="#222222" stroke-width="2" opacity="0.7"/>
    <path d="M 456,268 C 316,268 208,378 208,512 C 208,646 316,756 456,756 L 456,680 C 358,680 284,604 284,512 C 284,420 358,344 456,344 Z" fill="url(#letter-grad)" filter="url(#lg)"/>
    <rect x="496" y="268" width="72" height="488" rx="8" fill="url(#letter-grad)" filter="url(#lg)"/>
    <path fill-rule="evenodd"
      d="M 568,268 L 656,268 C 756,268 816,330 816,420 C 816,510 756,572 656,572 L 568,572 Z
         M 576,344 L 651,344 C 728,344 742,378 742,420 C 742,462 728,496 651,496 L 576,496 Z"
      fill="url(#letter-grad)" filter="url(#lg)"/>
    <rect x="208" y="790" width="608" height="5" rx="2.5" fill="#AAAAAA" opacity="0.4"/>
  </g>
</svg>
